<?xml version="1.0" standalone="no"?>
<!DOCTYPE svg PUBLIC "-//W3C//DTD SVG 20010904//EN"
        "http://www.w3.org/TR/2001/REC-SVG-20010904/DTD/svg10.dtd">
<svg version="1.0" xmlns="http://www.w3.org/2000/svg"
     width="12.000000pt" height="12.000000pt" viewBox="0 0 400.000000 300.000000"
     preserveAspectRatio="xMidYMid meet">

<g transform="translate(0.000000,300.000000) scale(0.100000,-0.100000)"
   fill="#000000" stroke="none">
<path fill="#FF291F" d="M1575 2980 c-16 -11 -30 -24 -29 -30 1 -5 2 -16 3 -24 0 -8 12 -28
26 -44 22 -27 31 -30 112 -36 108 -9 133 -23 133 -74 -1 -31 -3 -34 -13 -21
-33 42 -68 54 -166 53 -80 0 -107 -5 -165 -27 -112 -44 -140 -35 -186 65 l-22
48 -29 -21 c-35 -25 -36 -36 -4 -99 44 -86 83 -98 181 -53 52 24 72 27 164 27
126 1 155 -12 165 -71 9 -54 35 -111 72 -160 18 -24 28 -43 23 -43 -16 0 -288
77 -354 100 -33 11 -63 17 -67 13 -10 -11 8 -126 26 -169 25 -60 24 -61 -67
-52 -46 5 -118 14 -160 21 l-78 13 0 -23 c0 -74 87 -221 197 -334 l74 -76 -36
-31 c-89 -79 -294 -197 -427 -247 -27 -10 -48 -21 -48 -25 0 -5 32 -38 72 -75
168 -155 398 -272 630 -319 118 -24 391 -22 494 4 155 40 294 124 397 243 140
161 238 358 282 571 19 94 20 96 48 97 12 0 31 4 42 8 18 7 16 10 -18 27 l-38
20 56 18 c31 10 54 20 50 24 -3 3 -29 13 -57 22 l-52 15 -17 72 c-24 96 -58
160 -123 230 -97 105 -210 149 -360 141 -137 -8 -229 -48 -337 -145 l-37 -33
-17 42 c-11 28 -16 69 -16 120 1 129 -11 142 -136 153 -109 10 -112 11 -133
60 -11 25 -21 45 -22 45 -2 0 -16 -9 -33 -20z m1038 -537 l32 -17 -44 -6 c-45
-7 -71 -29 -71 -61 0 -59 67 -109 124 -92 40 11 63 55 47 89 -6 13 -7 24 -2
24 16 0 22 -53 10 -82 -14 -33 -55 -58 -97 -58 -44 0 -112 41 -133 80 -26 48
-24 77 10 111 34 34 75 38 124 12z m66 -62 c8 -14 7 -22 -3 -30 -18 -15 -46
-3 -46 18 0 35 33 43 49 12z"/>
        <path fill="#FF291F" d="M2867 1162 c-9 -10 -17 -30 -17 -44 0 -61 84 -78 124 -25 19 26 19
30 5 55 -19 35 -85 43 -112 14z"/>
        <path fill="#FF291F" d="M1690 1161 c-57 -5 -65 -9 -68 -28 -3 -18 3 -22 37 -28 l41 -7 0
-184 0 -184 -45 -12 c-37 -10 -45 -16 -43 -33 3 -19 10 -20 173 -20 199 0 234
6 280 46 68 60 68 148 1 207 l-32 28 28 26 c54 50 29 135 -50 171 -51 22 -196
31 -322 18z m247 -76 c48 -55 16 -115 -62 -115 l-45 0 0 76 0 77 42 -6 c29 -4
50 -14 65 -32z m3 -194 c52 -37 49 -135 -6 -160 -33 -14 -77 -14 -92 1 -17 17
-16 175 1 181 19 9 70 -3 97 -22z"/>
        <path fill="#FF291F" d="M524 1145 c-9 -24 3 -45 27 -45 21 0 22 -1 15 -152 -9 -206 -12 -218
-48 -230 -22 -8 -28 -16 -26 -32 3 -20 9 -21 93 -21 86 0 90 1 93 23 3 18 -2
23 -27 28 l-31 7 1 76 c1 42 4 103 8 136 l6 60 28 -60 c15 -33 49 -107 76
-165 35 -78 52 -105 66 -105 14 0 34 37 87 160 38 88 73 164 77 168 5 5 12
-53 15 -129 8 -147 6 -154 -42 -154 -18 0 -23 -5 -20 -22 3 -22 6 -23 128 -23
122 0 125 1 128 23 3 18 -2 23 -27 28 -36 8 -38 13 -46 194 -3 74 -8 147 -11
162 -5 23 -1 27 26 33 25 5 31 11 28 28 -3 21 -8 22 -91 22 l-88 0 -67 -149
-66 -150 -58 125 c-90 194 -71 174 -166 177 -67 2 -83 0 -88 -13z"/>
        <path fill="#FF291F" d="M2636 1050 c-14 -22 -42 -50 -61 -63 -38 -24 -45 -46 -16 -54 16 -4
19 -18 23 -115 4 -106 6 -112 32 -135 15 -13 40 -23 57 -23 61 0 138 52 126
85 -8 19 -31 19 -47 0 -7 -8 -21 -15 -31 -15 -17 0 -19 9 -19 99 l0 100 43 3
c38 3 42 6 45 31 3 26 2 27 -42 27 l-45 0 -3 47 c-4 63 -26 68 -62 13z"/>
        <path fill="#FF291F" d="M2875 987 c-66 -24 -80 -47 -40 -65 24 -11 25 -15 25 -107 0 -93 -1
-96 -26 -105 -16 -7 -24 -16 -22 -28 3 -15 16 -17 103 -17 96 0 100 1 103 23
2 15 -2 22 -13 22 -26 0 -35 45 -35 176 0 142 5 137 -95 101z"/>
        <path fill="#FF291F" d="M2250 984 c-52 -22 -70 -43 -70 -80 0 -18 3 -35 8 -37 4 -3 27 3 52
12 33 12 46 23 48 39 7 47 62 34 62 -13 0 -20 -12 -28 -70 -50 -79 -30 -104
-57 -104 -113 0 -67 82 -104 152 -68 24 12 30 12 47 0 27 -20 64 -17 103 6 35
22 41 56 9 54 -15 -2 -17 9 -17 81 0 45 -5 96 -11 114 -22 61 -129 90 -209 55z
m100 -204 c0 -30 -5 -42 -22 -51 -18 -10 -24 -8 -35 7 -19 26 -16 40 13 63 37
29 44 27 44 -19z"/>
        <path fill="#FF291F" d="M3124 981 c-74 -45 -62 -123 31 -191 58 -43 69 -72 29 -78 -14 -2
-30 8 -47 27 -41 49 -59 42 -55 -21 l3 -53 83 -3 c83 -3 83 -3 117 31 60 60
45 115 -51 182 -59 41 -74 67 -42 73 17 3 44 -19 64 -53 6 -12 16 -16 27 -12
13 5 17 19 17 56 0 42 -3 49 -22 55 -47 12 -123 6 -154 -13z"/>
        <path fill="#FF291F" d="M1190 975 c0 -9 12 -21 26 -27 19 -9 41 -43 85 -134 32 -68 59 -128
59 -136 0 -25 -45 -67 -80 -76 -62 -15 -73 -86 -17 -106 53 -19 71 4 178 219
67 134 110 209 131 227 44 38 28 50 -63 46 -59 -2 -74 -6 -77 -19 -2 -11 6
-19 22 -23 15 -4 26 -14 26 -23 0 -16 -47 -103 -56 -103 -2 0 -16 26 -30 58
l-25 57 20 14 c12 7 21 20 21 27 0 11 -23 14 -110 14 -92 0 -110 -3 -110 -15z"/>
    </g>
</svg>
